<mxfile host="app.diagrams.net" modified="2024-04-12T11:21:18.357Z" agent="Mozilla/5.0 (Macintosh; Intel Mac OS X 10_15_7) AppleWebKit/537.36 (KHTML, like Gecko) Chrome/123.0.0.0 Safari/537.36" version="24.2.0" etag="_hh65gDR6kBSPwC0t48R" type="github">
  <diagram name="第 1 页" id="zDjF9Vq7ICjCabzYDxMo">
    <mxGraphModel>
      <root>
        <mxCell id="0" />
        <mxCell id="1" parent="0" />
      </root>
    </mxGraphModel>
  </diagram>
</mxfile>
